<svg id="Capa_1" enable-background="new 0 0 512 512" height="512" viewBox="0 0 512 512" width="512" xmlns="http://www.w3.org/2000/svg"><g><ellipse cx="189.619" cy="292.707" fill="#f9f6f9" rx="73.121" ry="21.987" transform="matrix(.304 -.953 .953 .304 -146.9 384.29)"/><path d="m214.969 225.049c-11.116 7.271-24.974 30.997-34.535 60.971-11.055 34.628-12.63 65.778-4.398 74.348-3.16 2.066-6.105 2.812-8.662 1.994-11.566-3.692-10.983-37.869 1.299-76.342 12.282-38.472 31.621-66.657 43.187-62.965 1.156.367 2.189 1.042 3.109 1.994z" fill="#e2dfe2"/><ellipse cx="315.409" cy="292.707" fill="#f9f6f9" rx="21.987" ry="73.121" transform="matrix(.971 -.24 .24 .971 -60.923 84.058)"/><path d="m338.811 358.351c-1.544 2.915-3.518 4.766-5.891 5.349-11.791 2.904-29.187-26.517-38.861-65.727-9.674-39.209-7.956-73.356 3.835-76.26 2.373-.583 4.98.143 7.701 2.004-6.126 11.536-5.666 39.597 2.056 70.901 7.721 31.315 20.382 56.4 31.16 63.733z" fill="#e2dfe2"/><path d="m120.335 83.794s-52.9-57.84-98.373-35.795-16.079 288.816 49.186 315.355 86.506-164.51 86.506-164.51" fill="#b4acb7"/><path d="m391.665 83.794s52.9-57.84 98.373-35.795 16.078 288.815-49.186 315.354-86.506-164.51-86.506-164.51" fill="#b4acb7"/><path d="m96.287 113.962c-24.885-24.885-66.823-33.922-66.823 16.055 0 0-.477 127.63 82.222 127.63s-15.399-143.685-15.399-143.685z" fill="#a59da5"/><path d="m415.713 113.962c24.884-24.884 66.823-33.921 66.823 16.055 0 0 .478 127.63-82.222 127.63s15.399-143.685 15.399-143.685z" fill="#a59da5"/><path d="m439.274 197.371c0 61.196-49.609 110.806-110.816 110.806h-16.291c-14.951 0-27.469 11.301-29.033 26.17-.563 5.328-1.207 10.667-1.964 15.943-7.118 49.886-21.721 83.869-44.65 103.882-14.951 13.039-33.134 19.768-53.179 19.768-4.183 0-8.457-.297-12.794-.89-32.654-4.449-56.073-26.436-65.931-61.902-4.541-16.322 5.021-33.237 21.343-37.777 16.322-4.531 33.237 5.021 37.777 21.343.695 2.495 1.432 4.633 2.219 6.453.01.031.02.051.031.082 4.244 9.838 9.501 10.544 12.845 11.004 9.419 1.288 13.898-1.309 17.334-4.306 6.31-5.512 17.856-21.455 24.258-66.319.02-.113.031-.225.051-.338 2.475-17.498-11.249-33.114-28.931-33.114h-8.007c-30.598 0-58.302-12.405-78.357-32.449-20.044-20.054-32.449-47.758-32.449-78.357 0-87.99 71.321-159.311 159.301-159.311h47.932c43.995 0 83.828 17.835 112.647 46.654 28.839 28.84 46.664 68.662 46.664 112.658z" fill="#c3bec6"/><path d="m243.72 334.49c.535 42.299-10.022 75.391-34.014 92.05-13.305 5.993-37.9-7.956-43.719-25.29 4.244 9.838 9.501 10.544 12.845 11.004 9.419 1.288 13.898-1.309 17.334-4.306 6.31-5.512 17.856-21.455 24.258-66.319.02-.113.031-.225.051-.338 2.475-17.498-11.249-33.114-28.931-33.114h-8.007c-30.598 0-58.302-12.405-78.357-32.449-20.044-20.054-32.449-47.758-32.449-78.357 0-87.99 71.321-159.311 159.301-159.311-56.308 0-81.067 65.9-72.967 142.887 8.099 76.986 84.138 112.683 84.655 153.543z" fill="#a59da5"/><g fill="#282528"><path d="m176.651 208.742c-9.686 0-17.567 11.778-17.567 26.254s7.88 26.254 17.567 26.254c9.686 0 17.566-11.777 17.566-26.254 0-14.476-7.88-26.254-17.566-26.254z"/><path d="m335.355 208.742c-9.686 0-17.567 11.778-17.567 26.254s7.88 26.254 17.567 26.254c9.686 0 17.566-11.777 17.566-26.254 0-14.476-7.881-26.254-17.566-26.254z"/></g><path d="m127.077 408.892c-3.578 0-6.816-.629-9.128-1.409-4.043-1.365-6.214-5.749-4.849-9.792 1.359-4.026 5.711-6.195 9.738-4.867.895.282 8.37 2.445 11.631-2.937 2.212-3.649 6.963-4.814 10.612-2.603 3.649 2.212 4.815 6.963 2.603 10.612-5.181 8.55-13.553 10.996-20.607 10.996z" fill="#a59da5"/></g></svg>